# File created by Blade
# Date/Time:  Tue Sep 30 19:10:05 2014
#---------------------------------------------------------
:version 1.10
:name HOM
:units
  mass 1.0
  length 1.000000
  angle deg
:documentation
     Acclaim Skeleton File
:root
   axis xyz
   order TX TY TZ RX RY RZ
   position 0.000000 0.000000 0.000000
   orientation 0 0 0
:bonedata
   begin
      id 1
      name Spine_dum
      direction 0.000000 1.000000 0.000000
      length 7.508948
      axis 0.0 0.0 0.0 xyz
   end
   begin
      id 2
      name LeftUpLeg_dum
      direction 1.000000 0.000000 0.000000
      length 3.000560
      axis 0.0 0.0 0.0 xyz
   end
   begin
      id 3
      name RightUpLeg_dum
      direction -1.000000 0.000000 0.000000
      length 3.000560
      axis 0.0 0.0 0.0 xyz
   end
   begin
      id 4
      name Spine
      direction 0.000000 1.000000 0.000000
      length 0.000000
      axis 0.0 0.0 0.0 xyz
      dof rx ry rz
   end
   begin
      id 5
      name Spine_dum1
      direction 0.000000 1.000000 0.000000
      length 13.861154
      axis 0.0 0.0 0.0 xyz
   end
   begin
      id 6
      name Spine_dum2
      direction 0.000000 1.000000 0.000000
      length 8.204781
      axis 0.0 0.0 0.0 xyz
   end
   begin
      id 7
      name Spine_dum3
      direction 0.000000 1.000000 0.000000
      length 8.204781
      axis 0.0 0.0 0.0 xyz
   end
   begin
      id 8
      name Head
      direction 0.000000 1.000000 0.000000
      length 4.527550
      axis 0.0 0.0 0.0 xyz
      dof rx ry rz
   end
   begin
      id 9
      name LeftShoulder
      direction 1.000000 0.000000 0.000000
      length 6.635956
      axis 0.0 0.0 -90.0 xyz
      dof rx ry rz
   end
   begin
      id 10
      name LeftArm
      direction 1.000000 0.000000 0.000000
      length 10.274218
      axis 0.0 0.0 -90.0 xyz
      dof rx ry rz
   end
   begin
      id 11
      name LeftForeArm
      direction 1.000000 0.000000 0.000000
      length 8.522147
      axis 0.0 0.0 -90.0 xyz
      dof ry rz rx
   end
   begin
      id 12
      name LeftHand
      direction 0.000000 0.000000 0.000000
      length 0.000000
      axis 0.0 0.0 -90.0 xyz
      dof rx ry rz
   end
   begin
      id 13
      name LeftHand_dum1
      direction 0.000000 0.000000 0.000000
      length 0.000000
      axis 0.0 0.0 -90.0 xyz
   end
   begin
      id 14
      name LeftHand_dum2
      direction 1.000000 0.000000 0.000000
      length 3.937000
      axis 0.0 0.0 -90.0 xyz
   end
   begin
      id 15
      name LeftHandThumb1
      direction 0.000000 0.000000 1.000000
      length 3.937000
      axis 0.0 0.0 -90.0 xyz
      dof rx rz ry
   end
   begin
      id 16
      name RightShoulder
      direction -1.000000 0.000000 0.000000
      length 6.635956
      axis 0.0 0.0 90.0 xyz
      dof rx ry rz
   end
   begin
      id 17
      name RightArm
      direction -1.000000 0.000000 0.000000
      length 10.274218
      axis 0.0 0.0 90.0 xyz
      dof rx ry rz
   end
   begin
      id 18
      name RightForeArm
      direction -1.000000 0.000000 0.000000
      length 8.522147
      axis 0.0 0.0 90.0 xyz
      dof ry rz rx
   end
   begin
      id 19
      name RightHand
      direction 0.000000 0.000000 0.000000
      length 0.000000
      axis 0.0 0.0 90.0 xyz
      dof rx ry rz
   end
   begin
      id 20
      name RightHand_dum1
      direction 0.000000 0.000000 0.000000
      length 0.000000
      axis 0.0 0.0 90.0 xyz
   end
   begin
      id 21
      name RightHand_dum2
      direction -1.000000 0.000000 0.000000
      length 3.937000
      axis 0.0 0.0 90.0 xyz
   end
   begin
      id 22
      name RightHandThumb1
      direction 0.000000 0.000000 1.000000
      length 3.937000
      axis 0.0 0.0 90.0 xyz
      dof rx rz ry
   end
   begin
      id 23
      name LeftUpLeg
      direction 0.000000 -1.000000 0.000000
      length 16.490845
      axis 0.0 0.0 0.0 xyz
      dof rx ry rz
   end
   begin
      id 24
      name LeftLeg
      direction 0.000000 -1.000000 0.000000
      length 14.556576
      axis 0.0 0.0 0.0 xyz
      dof rx ry rz
   end
   begin
      id 25
      name LeftFoot
      direction 0.000000 -0.258819 0.965926
      length 4.831116
      axis 15.0 0.0 0.0 xyz
      dof rx ry rz
   end
   begin
      id 26
      name LeftToeBase
      direction 0.000000 0.000000 1.000000
      length 2.952750
      axis 0.0 0.0 0.0 xyz
      dof rx ry rz
   end
   begin
      id 27
      name RightUpLeg
      direction 0.000000 -1.000000 0.000000
      length 16.490845
      axis 0.0 0.0 0.0 xyz
      dof rx ry rz
   end
   begin
      id 28
      name RightLeg
      direction 0.000000 -1.000000 0.000000
      length 14.556576
      axis 0.0 0.0 0.0 xyz
      dof rx ry rz
   end
   begin
      id 29
      name RightFoot
      direction 0.000000 -0.258819 0.965926
      length 4.831116
      axis 15.0 0.0 0.0 xyz
      dof rx ry rz
   end
   begin
      id 30
      name RightToeBase
      direction 0.000000 0.000000 1.000000
      length 2.952750
      axis 0.0 0.0 0.0 xyz
      dof rx ry rz
   end
:hierarchy
   begin
      root Spine_dum LeftUpLeg_dum RightUpLeg_dum
      Spine_dum Spine
      LeftUpLeg_dum LeftUpLeg
      RightUpLeg_dum RightUpLeg
      Spine Spine_dum1 Spine_dum2 Spine_dum3
      Spine_dum1 Head
      Spine_dum2 LeftShoulder
      Spine_dum3 RightShoulder
      LeftShoulder LeftArm
      LeftArm LeftForeArm
      LeftForeArm LeftHand
      LeftHand LeftHand_dum1 LeftHand_dum2
      LeftHand_dum1 LeftHandThumb1
      RightShoulder RightArm
      RightArm RightForeArm
      RightForeArm RightHand
      RightHand RightHand_dum1 RightHand_dum2
      RightHand_dum1 RightHandThumb1
      LeftUpLeg LeftLeg
      LeftLeg LeftFoot
      LeftFoot LeftToeBase
      RightUpLeg RightLeg
      RightLeg RightFoot
      RightFoot RightToeBase
   end

# File created by Blade
# Date/Time:  Wed Sep 24 20:15:16 2014
# Frame Rate: 120.000 fps
#------------------------------------------------------
:FULLY-SPECIFIED
:DEGREES
147
root -6.218789 32.788814 -5.058540 16.245118 5.380098 -0.942831
Spine -18.633557 7.094110 0.521586
Head -11.450005 -9.581303 9.510958
LeftShoulder -7.954722 18.477218 9.449367
LeftArm 24.888831 43.669687 -69.873597
LeftForeArm 4.522820 0.000000 22.212226
LeftHand -21.661767 0.000000 -10.624110
LeftHandThumb1 -26.253704 0.000000 33.147579
RightShoulder -17.561653 9.415911 -16.041183
RightArm -14.188887 -23.711564 95.094816
RightForeArm 4.928520 -0.000000 74.470047
RightHand -3.877239 0.000000 2.379788
RightHandThumb1 -24.326973 -0.000000 -32.862282
LeftUpLeg -13.341062 5.093755 4.018832
LeftLeg -0.000931 -0.000000 0.000000
LeftFoot -10.498236 6.274469 -18.186604
LeftToeBase 9.657239 -0.000000 -0.000000
RightUpLeg -13.277850 -7.254813 -1.279266
RightLeg 3.142723 -0.000000 -0.000000
RightFoot -8.856242 -4.727364 -13.368809
RightToeBase 0.228711 -0.000000 -0.000000
148
root -6.224735 32.788488 -5.057335 16.263088 5.421225 -0.958937
Spine -18.683879 7.076062 0.505255
Head -11.378393 -9.750576 9.591883
LeftShoulder -7.931280 18.479593 9.469633
LeftArm 24.909100 43.457363 -69.799830
LeftForeArm 4.395642 -0.000000 22.231961
LeftHand -21.753358 -0.000000 -10.896860
LeftHandThumb1 -26.253704 0.000000 33.147579
RightShoulder -17.570833 9.497301 -15.927116
RightArm -14.092658 -23.939751 95.126196
RightForeArm 4.820582 -0.000000 73.745809
RightHand -3.978225 -0.000000 2.477307
RightHandThumb1 -24.326973 -0.000000 -32.862282
LeftUpLeg -13.359296 5.096917 4.046979
LeftLeg -0.021029 -0.000000 0.000000
LeftFoot -10.460719 6.229757 -18.305214
LeftToeBase 9.533932 -0.000000 -0.000000
RightUpLeg -13.288416 -7.258318 -1.247482
RightLeg 3.138852 -0.000000 -0.000000
RightFoot -8.851457 -4.746408 -13.334553
RightToeBase 0.241843 -0.000000 -0.000000
149
root -6.231592 32.788046 -5.056063 16.284819 5.461882 -0.978301
Spine -18.737389 7.063846 0.487046
Head -11.311593 -9.897770 9.656836
LeftShoulder -7.917449 18.472697 9.508107
LeftArm 24.910659 43.237863 -69.761672
LeftForeArm 4.192115 -0.000000 22.266717
LeftHand -21.801169 -0.000000 -10.359743
LeftHandThumb1 -26.253704 0.000000 33.147579
RightShoulder -17.602702 9.583322 -15.818871
RightArm -14.009439 -24.313833 95.168667
RightForeArm 5.072530 -0.000000 72.907993
RightHand -4.095436 0.000000 2.463341
RightHandThumb1 -24.326973 -0.000000 -32.862282
LeftUpLeg -13.381550 5.088844 4.080356
LeftLeg -0.031330 -0.000000 0.000000
LeftFoot -10.469080 6.229306 -18.184770
LeftToeBase 9.589806 -0.000000 -0.000000
RightUpLeg -13.306403 -7.274881 -1.207033
RightLeg 3.140342 -0.000000 -0.000000
RightFoot -8.853540 -4.755638 -13.335025
RightToeBase 0.244230 -0.000000 -0.000000
150
root -6.238543 32.787200 -5.053030 16.279975 5.514412 -1.004837
Spine -18.752181 7.046976 0.486263
Head -11.267971 -10.026147 9.706577
LeftShoulder -7.910541 18.482837 9.524488
LeftArm 24.889860 42.908209 -69.753447
LeftForeArm 4.072111 0.000000 22.338846
LeftHand -21.860874 -0.000000 -10.113859
LeftHandThumb1 -26.253704 0.000000 33.147579
RightShoulder -17.638240 9.636061 -15.713219
RightArm -13.950107 -24.539297 95.276047
RightForeArm 5.422243 -0.000000 72.010618
RightHand -4.101394 -0.000000 2.411474
RightHandThumb1 -24.326973 -0.000000 -32.862282
LeftUpLeg -13.370214 5.061986 4.127811
LeftLeg -0.060573 -0.000000 0.000000
LeftFoot -10.473772 6.229690 -18.206856
LeftToeBase 9.650794 -0.000000 -0.000000
RightUpLeg -13.289119 -7.290585 -1.158109
RightLeg 3.130516 -0.000000 -0.000000
RightFoot -8.842377 -4.802530 -13.360426
RightToeBase 0.218407 -0.000000 -0.000000
151
root -6.245672 32.786180 -5.048493 16.283040 5.574389 -1.028788
Spine -18.786050 7.028484 0.481242
Head -11.223013 -10.168623 9.770163
LeftShoulder -7.913783 18.502924 9.545271
LeftArm 24.871545 42.616274 -69.731092
LeftForeArm 3.925742 -0.000000 22.462253
LeftHand -22.190478 -0.000000 -9.765958
LeftHandThumb1 -26.253704 0.000000 33.147579
RightShoulder -17.685394 9.683418 -15.571156
RightArm -13.882668 -24.885017 95.343181
RightForeArm 5.688715 -0.000000 71.059529
RightHand -4.099004 -0.000000 2.378125
RightHandThumb1 -24.326973 -0.000000 -32.862282
LeftUpLeg -13.367390 5.045758 4.171488
LeftLeg -0.086115 -0.000000 0.000000
LeftFoot -10.466212 6.206616 -18.200620
LeftToeBase 9.613075 -0.000000 -0.000000
RightUpLeg -13.271769 -7.324201 -1.110929
RightLeg 3.111365 -0.000000 -0.000000
RightFoot -8.836290 -4.803005 -13.348176
RightToeBase 0.190691 -0.000000 -0.000000
152
root -6.252372 32.785231 -5.046587 16.320830 5.612080 -1.042307
Spine -18.854690 7.012792 0.454839
Head -11.189129 -10.287118 9.833442
LeftShoulder -7.933813 18.527577 9.592054
LeftArm 24.848219 42.346721 -69.730357
LeftForeArm 3.926187 -0.000000 22.587839
LeftHand -22.078342 0.000000 -10.096951
LeftHandThumb1 -26.253704 0.000000 33.147579
RightShoulder -17.739075 9.713938 -15.481993
RightArm -13.806137 -25.313029 95.449841
RightForeArm 5.939315 -0.000000 70.032408
RightHand -4.202722 -0.000000 2.273641
RightHandThumb1 -24.326973 -0.000000 -32.862282
LeftUpLeg -13.402891 5.017704 4.203907
LeftLeg -0.098436 -0.000000 0.000000
LeftFoot -10.470252 6.203459 -18.226959
LeftToeBase 9.673288 -0.000000 -0.000000
RightUpLeg -13.298456 -7.318669 -1.084210
RightLeg 3.106240 -0.000000 -0.000000
RightFoot -8.840838 -4.830611 -13.348435
RightToeBase 0.163533 -0.000000 -0.000000
153
root -6.258955 32.784428 -5.046713 16.363105 5.614132 -1.054220
Spine -18.926549 7.034721 0.411223
Head -11.162749 -10.452337 9.940578
LeftShoulder -7.939102 18.560685 9.626357
LeftArm 24.849018 42.018179 -69.709593
LeftForeArm 3.600672 -0.000000 22.698160
LeftHand -22.268005 -0.000000 -9.532441
LeftHandThumb1 -26.253704 0.000000 33.147579
RightShoulder -17.788825 9.733259 -15.368271
RightArm -13.742580 -25.659570 95.565176
RightForeArm 5.902436 -0.000000 68.989416
RightHand -4.174562 -0.000000 2.372077
RightHandThumb1 -24.326973 -0.000000 -32.862282
LeftUpLeg -13.446711 5.026868 4.221659
LeftLeg -0.101707 -0.000000 0.000000
LeftFoot -10.464445 6.214148 -18.192907
LeftToeBase 9.602886 -0.000000 -0.000000
RightUpLeg -13.350038 -7.255739 -1.063314
RightLeg 3.123722 -0.000000 -0.000000
RightFoot -8.847126 -4.902974 -13.352665
RightToeBase 0.246963 -0.000000 -0.000000
154
root -6.264579 32.783575 -5.048681 16.437484 5.636055 -1.050689
Spine -19.025701 7.020078 0.359631
Head -11.128594 -10.559798 10.018459
LeftShoulder -7.972043 18.563409 9.679283
LeftArm 24.800221 41.729330 -69.741214
LeftForeArm 3.519217 -0.000000 22.833458
LeftHand -22.373983 0.000000 -9.345648
LeftHandThumb1 -26.253704 0.000000 33.147579
RightShoulder -17.861734 9.717624 -15.305771
RightArm -13.624372 -26.154943 95.697967
RightForeArm 5.829034 -0.000000 67.882975
RightHand -4.206072 -0.000000 2.310026
RightHandThumb1 -24.326973 -0.000000 -32.862282
LeftUpLeg -13.533386 5.016975 4.225367
LeftLeg -0.096500 -0.000000 0.000000
LeftFoot -10.445683 6.193792 -18.292987
LeftToeBase 9.541015 -0.000000 -0.000000
RightUpLeg -13.431181 -7.219899 -1.055470
RightLeg 3.140995 -0.000000 -0.000000
RightFoot -8.864802 -4.955480 -13.339715
RightToeBase 0.278196 -0.000000 -0.000000
155
root -6.270636 32.782914 -5.043937 16.430358 5.687703 -1.074091
Spine -19.043969 6.994050 0.362630
Head -11.096941 -10.643068 10.054963
LeftShoulder -7.969810 18.592461 9.715127
LeftArm 24.792521 41.442299 -69.724921
LeftForeArm 3.356634 0.000000 22.985767
LeftHand -22.382811 -0.000000 -9.324612
LeftHandThumb1 -26.253704 0.000000 33.147579
RightShoulder -17.898934 9.731914 -15.218418
RightArm -13.537439 -26.590314 95.806083
RightForeArm 5.477059 -0.000000 66.734726
RightHand -4.165712 -0.000000 2.348465
RightHandThumb1 -24.326973 -0.000000 -32.862282
LeftUpLeg -13.523475 4.978257 4.271294
LeftLeg -0.104436 -0.000000 0.000000
LeftFoot -10.482802 6.217803 -18.220997
LeftToeBase 9.686775 -0.000000 -0.000000
RightUpLeg -13.401075 -7.232499 -1.018247
RightLeg 3.116949 -0.000000 -0.000000
RightFoot -8.860634 -4.959965 -13.326560
RightToeBase 0.276176 -0.000000 -0.000000
